<svg width="102" height="102" viewBox="0 0 102 102" fill="none" xmlns="http://www.w3.org/2000/svg">
<g opacity="0.7">
<path d="M72.7908 70.2337L72.9843 70.427L73.1595 70.217C75.0782 67.9169 78.5538 67.8917 80.8983 70.2337L95.4918 84.812C96.4471 85.7663 96.9387 87.2146 96.9387 88.7353C96.9387 90.2506 96.4499 91.8074 95.4838 92.9704L93.0596 95.392C91.9069 96.5435 90.3602 96.9387 88.7771 96.9387C87.1941 96.9387 85.6474 96.5435 84.4947 95.392L69.9012 80.8137C67.98 78.8945 67.9591 75.3981 69.9165 73.0517L70.0629 72.8762L69.9012 72.7146L64.2259 67.0453L64.0549 66.8744L63.8784 67.0397C57.4413 73.0681 48.1799 76.691 38.5106 76.691C17.569 76.691 0.25 59.3898 0.25 38.4705C0.25 17.5513 17.569 0.25 38.5106 0.25C59.4506 0.25 76.7713 17.5496 76.7713 38.8755C76.7713 48.5302 73.1473 57.3811 67.1049 64.222L66.9492 64.3982L67.1156 64.5644L72.7908 70.2337ZM23.6744 7.50421L23.5484 7.39635L23.4 7.47045C11.9724 13.1783 3.80375 25.0041 3.80375 38.4705C3.80375 42.1345 4.21135 45.406 5.4412 48.6822L5.50206 48.8443H5.67525H10.1344C10.2011 48.8443 10.3013 48.8621 10.436 48.8988C10.5674 48.9346 10.7125 48.9829 10.8661 49.034L10.8698 49.0352C11.0191 49.085 11.1767 49.1374 11.3228 49.1772C11.4291 49.2062 11.5404 49.2317 11.6461 49.243L18.0652 55.6554L18.2419 55.8319L18.4186 55.6554L20.0401 54.0356L20.1387 53.9371L20.1067 53.8014L18.4919 46.9455C18.492 46.7441 18.4945 46.4733 18.5391 46.2058C18.5869 45.9194 18.6767 45.6787 18.8239 45.5316C19.2267 45.1293 19.5678 44.7948 20.2688 44.7948H24.7279H24.908L24.965 44.6239L28.5953 33.7443C28.6942 33.6397 28.7896 33.5193 28.8791 33.402C28.9154 33.3544 28.9505 33.3077 28.9848 33.262C29.0508 33.174 29.1142 33.0896 29.1795 33.0081C29.2778 32.8852 29.3658 32.7882 29.4459 32.7232C29.5285 32.6562 29.5746 32.6462 29.5924 32.6462C29.7965 32.6462 30.0811 32.6467 30.3621 32.6935C30.6488 32.7412 30.8899 32.8309 31.0372 32.9781L31.0659 33.0067L31.1022 33.0248L36.7774 35.8595L37.0313 35.9863L37.1251 35.7185L39.9627 27.6195L40.0477 27.3769L39.8029 27.2987L29.7243 24.0769C29.6198 23.9785 29.4998 23.8836 29.3828 23.7945C29.335 23.7582 29.2883 23.7232 29.2425 23.6889C29.1545 23.623 29.0699 23.5596 28.9884 23.4944C28.8654 23.3962 28.7683 23.3083 28.7032 23.2283C28.6361 23.1457 28.6263 23.0998 28.6263 23.0823C28.6263 22.8784 28.6267 22.5942 28.6735 22.3135C28.7213 22.0272 28.8111 21.7864 28.9583 21.6394L28.987 21.6107L29.0052 21.5744L32.2482 15.0952L32.3356 14.9204L32.1872 14.7934L23.6744 7.50421ZM7.29675 52.3939H6.91055L7.06866 52.7462C12.3771 64.5757 24.6251 73.1415 38.5106 73.1415C45.0514 73.1415 50.768 71.0989 56.0602 68.2522L56.2455 68.1526L56.1789 67.9529L53.7467 60.6638L53.6896 60.4929H53.5095H51.0773C50.2462 60.4929 49.9531 60.4815 49.6324 60.1611L45.5787 56.1116C45.2039 55.7372 45.0337 55.3811 44.9913 55.0425C44.9486 54.7012 45.0319 54.3467 45.2202 53.9706L49.2739 45.8716L49.3004 45.8187V45.7597C49.3004 45.4518 49.4492 45.2207 49.6957 45.0566C49.9495 44.8876 50.3036 44.7948 50.6719 44.7948H57.9686H58.0721L58.1453 44.7217L60.983 41.887L61.0563 41.8138V41.7101V38.4705C61.0563 38.1027 61.1491 37.7492 61.3182 37.4957C61.4825 37.2496 61.7139 37.1007 62.0224 37.1007H62.0835L62.1376 37.0726L72.272 31.8082L72.4397 31.7211L72.4016 31.536C69.1354 15.6298 55.2529 3.79953 38.5106 3.79953C34.8348 3.79953 31.1641 4.61441 27.5254 5.42216L27.5113 5.42528L27.0202 5.5343L27.4037 5.85991L35.5034 12.7375C35.8974 13.1323 36.1576 13.4947 36.2412 13.8291C36.3183 14.1369 36.2541 14.4544 35.9017 14.8064L35.8705 14.8375L35.8519 14.8774L33.0143 20.9517L32.8983 21.2001L33.1562 21.2928L43.2764 24.9323C43.6515 25.1218 44.0087 25.3965 44.2273 25.7459C44.4423 26.0894 44.5325 26.5182 44.3541 27.0527L40.3191 39.1453L39.2181 40.2451C39.0267 40.244 38.7879 40.2374 38.5517 40.1981C38.265 40.1503 38.0238 40.0606 37.8766 39.9135L37.8454 39.8823L37.8055 39.8637L31.7249 37.0291L31.4677 36.9092L31.3812 37.1794L28.1442 47.2843C27.7844 47.9867 27.0737 48.3443 26.3494 48.3443H22.701H22.3695L22.4606 48.6631L24.0725 54.2987C24.0721 54.7026 24.0602 55.4211 23.7112 56.1408L19.6867 60.1611C19.5394 60.3082 19.2983 60.398 19.0116 60.4457C18.7306 60.4925 18.446 60.4929 18.2419 60.4929C18.0341 60.4929 17.7556 60.4921 17.5308 60.4472C17.4172 60.4245 17.3422 60.395 17.301 60.3665C17.2717 60.3462 17.275 60.3395 17.2757 60.3382C17.2757 60.3381 17.2758 60.338 17.2758 60.338V60.2343L17.2024 60.1611L9.50031 52.467L9.4271 52.3939H9.32363H7.29675ZM58.9453 66.0792L59.0491 66.4248L59.3362 66.2063C67.9074 59.6826 73.2175 49.8919 73.2175 38.4705V38.4634V38.4563V38.4492V38.4421V38.435V38.428V38.4209V38.4139V38.4068V38.3998V38.3928V38.3858V38.3788V38.3718V38.3648V38.3578V38.3508V38.3439V38.3369V38.33V38.3231V38.3161V38.3092V38.3023V38.2954V38.2885V38.2816V38.2748V38.2679V38.2611V38.2542V38.2474V38.2406V38.2337V38.2269V38.2201V38.2133V38.2066V38.1998V38.193V38.1863V38.1795V38.1728V38.166V38.1593V38.1526V38.1459V38.1392V38.1325V38.1258V38.1191V38.1125V38.1058V38.0992V38.0925V38.0859V38.0793V38.0727V38.0661V38.0595V38.0529V38.0463V38.0397V38.0331V38.0266V38.02V38.0135V38.007V38.0004V37.9939V37.9874V37.9809V37.9744V37.9679V37.9614V37.955V37.9485V37.9421V37.9356V37.9292V37.9227V37.9163V37.9099V37.9035V37.8971V37.8907V37.8843V37.8779V37.8716V37.8652V37.8589V37.8525V37.8462V37.8398V37.8335V37.8272V37.8209V37.8146V37.8083V37.802V37.7957V37.7895V37.7832V37.7769V37.7707V37.7645V37.7582V37.752V37.7458V37.7396V37.7334V37.7272V37.721V37.7148V37.7086V37.7024V37.6963V37.6901V37.684V37.6778V37.6717V37.6656V37.6595V37.6534V37.6473V37.6412V37.6351V37.629V37.6229V37.6168V37.6108V37.6047V37.5987V37.5926V37.5866V37.5806V37.5745V37.5685V37.5625V37.5565V37.5505V37.5445V37.5385V37.5326V37.5266V37.5206V37.5147V37.5087V37.5028V37.4969V37.4909V37.485V37.4791V37.4732V37.4673V37.4614V37.4555V37.4496V37.4437V37.4379V37.432V37.4262V37.4203V37.4145V37.4086V37.4028V37.397V37.3911V37.3853V37.3795V37.3737V37.3679V37.3621V37.3563V37.3506V37.3448V37.339V37.3333V37.3275V37.3218V37.316V37.3103V37.3046V37.2989V37.2931V37.2874V37.2817V37.276V37.2703V37.2646V37.259V37.2533V37.2476V37.242V37.2363V37.2306V37.225V37.2194V37.2137V37.2081V37.2025V37.1969V37.1912V37.1856V37.18V37.1744V37.1688V37.1633V37.1577V37.1521V37.1465V37.141V37.1354V37.1299V37.1243V37.1188V37.1132V37.1077V37.1022V37.0967V37.0912V37.0856V37.0801V37.0746V37.0691V37.0637V37.0582V37.0527V37.0472V37.0418V37.0363V37.0308V37.0254V37.0199V37.0145V37.0091V37.0036V36.9982V36.9928V36.9874V36.9819V36.9765V36.9711V36.9657V36.9603V36.955V36.9496V36.9442V36.9388V36.9334V36.9281V36.9227V36.9174V36.912V36.9067V36.9013V36.896V36.8907V36.8853V36.88V36.8747V36.8694V36.8641V36.8588V36.8535V36.8482V36.8429V36.8376V36.8323V36.827V36.8218V36.8165V36.8112V36.806V36.8007V36.7955V36.7902V36.785V36.7797V36.7745V36.7693V36.764V36.7588V36.7536V36.7484V36.7432V36.738V36.7328V36.7276V36.7224V36.7172V36.712V36.7068V36.7016V36.6965V36.6913V36.6861V36.681V36.6758V36.6707V36.6655V36.6604V36.6552V36.6501V36.6449V36.6398V36.6347V36.6296V36.6244V36.6193V36.6142V36.6091V36.604V36.5989V36.5938V36.5887V36.5836V36.5785V36.5734V36.5684V36.5633V36.5582V36.5531V36.5481V36.543V36.5379V36.5329V36.5278V36.5228V36.5177V36.5127V36.5076V36.5026V36.4976V36.4925V36.4875V36.4825V36.4775V36.4725V36.4674V36.4624V36.4574V36.4524V36.4474V36.4424V36.4374V36.4324V36.4274V36.4224V36.4175V36.4125V36.4075V36.4025V36.3975V36.3926V36.3876V36.3826V36.3777V36.3727V36.3678V36.3628V36.3579V36.3529V36.348V36.343V36.3381V36.3332V36.3282V36.3233V36.3184V36.3134V36.3085V36.3036V36.2987V36.2938V36.2888V36.2839V36.279V36.2741V36.2692V36.2643V36.2594V36.2545V36.2496V36.2447V36.2398V36.2349V36.2301V36.2252V36.2203V36.2154V36.2105V36.2057V36.2008V36.1959V36.191V36.1862V36.1813V36.1765V36.1716V36.1667V36.1619V36.157V36.1522V36.1473V36.1425V36.1376V36.1328V36.1279V36.1231V36.1183V36.1134V36.1086V36.1038V36.0989V36.0941V36.0893V36.0844V36.0796V36.0748V36.07V36.0652V36.0603V36.0555V36.0507V36.0459V36.0411V36.0363V36.0315V36.0266V36.0218V36.017V36.0122V36.0074V36.0026V35.9978V35.993V35.9882V35.9835V35.9787V35.9739V35.9691V35.9643V35.9595V35.9547V35.9499V35.9451V35.9404V35.9356V35.9308V35.926V35.9212V35.9165V35.9117V35.9069V35.9021V35.8974V35.8926V35.8878V35.883V35.8783V35.8735V35.8687V35.864V35.8592V35.8544V35.8497V35.8449V35.8402V35.8354V35.8306V35.8259V35.8211V35.8163V35.8116V35.8068V35.8021V35.7973V35.7926V35.7878V35.7831V35.7783V35.7735V35.7688V35.764V35.7593V35.7545V35.7498V35.745V35.7403V35.7355V35.7308V35.726V35.7213V35.7165V35.7118V35.707V35.7023V35.6976V35.6928V35.6881V35.6833V35.6786V35.6738V35.6691V35.6643V35.6596V35.6548V35.6501V35.6453V35.6406V35.6359V35.2315L72.8558 35.4122L64.7483 39.4617L64.61 39.5308V39.6854V42.5201C64.61 43.3502 64.5985 43.6427 64.278 43.963L60.2911 47.9457C60.1854 47.957 60.0741 47.9825 59.9678 48.0115C59.8218 48.0512 59.6644 48.1036 59.5152 48.1533L59.5112 48.1547C59.3575 48.2058 59.2124 48.2541 59.081 48.2899C58.9463 48.3266 58.8461 48.3443 58.7794 48.3443H51.888H51.7336L51.6645 48.4824L48.8268 54.1518L48.7461 54.3131L48.8737 54.4406L51.306 56.8703L51.3792 56.9434H51.4826H54.7256C55.4493 56.9434 56.1593 57.3004 56.5195 58.0015L58.9453 66.0792ZM93.0076 90.4814L93.0363 90.4527L93.0545 90.4164C93.2772 89.9713 93.3825 89.4298 93.4344 88.912C93.4863 88.3934 93.4863 87.877 93.4863 87.474V87.4698V87.3662L93.413 87.2929L78.8195 72.7147C78.3404 72.2361 77.835 72.2363 77.0743 72.2365L77.0213 72.2366L76.9683 72.2365C76.2075 72.2363 75.7021 72.2361 75.2231 72.7146L72.7908 75.1444C71.8823 76.0519 71.8823 77.4252 72.7908 78.3328L87.3843 92.9111C88.2927 93.8185 89.667 93.8185 90.5753 92.9111L93.0076 90.4814Z" fill="white" stroke="#152D4C" stroke-width="0.5"/>
</g>
</svg>
