<svg width="106" height="106" viewBox="0 0 106 106" fill="none" xmlns="http://www.w3.org/2000/svg">
<g opacity="0.7">
<path d="M98.58 39.22H77.38C75.578 39.22 74.2 40.598 74.2 42.4V51.94H67.734C67.204 44.626 61.374 38.69 54.06 38.266V31.8H63.6C65.402 31.8 66.78 30.422 66.78 28.62V7.41999C66.78 5.61799 65.402 4.23999 63.6 4.23999H42.4C40.598 4.23999 39.22 5.61799 39.22 7.41999V28.62C39.22 30.422 40.598 31.8 42.4 31.8H51.94V38.266C44.626 38.796 38.69 44.626 38.266 51.94H31.8V42.4C31.8 40.598 30.422 39.22 28.62 39.22H7.42C5.618 39.22 4.24 40.598 4.24 42.4V63.6C4.24 65.402 5.618 66.78 7.42 66.78H28.62C30.422 66.78 31.8 65.402 31.8 63.6V54.06H38.266C38.796 61.374 44.626 67.31 51.94 67.734V74.2H42.4C40.598 74.2 39.22 75.578 39.22 77.38V98.58C39.22 100.382 40.598 101.76 42.4 101.76H63.6C65.402 101.76 66.78 100.382 66.78 98.58V77.38C66.78 75.578 65.402 74.2 63.6 74.2H54.06V67.734C61.374 67.204 67.31 61.374 67.734 54.06H74.2V63.6C74.2 65.402 75.578 66.78 77.38 66.78H98.58C100.382 66.78 101.76 65.402 101.76 63.6V42.4C101.76 40.598 100.382 39.22 98.58 39.22ZM49.82 16.96C49.82 15.158 51.198 13.78 53 13.78C54.802 13.78 56.18 15.158 56.18 16.96C56.18 18.762 54.802 20.14 53 20.14C51.198 20.14 49.82 18.762 49.82 16.96ZM44.626 29.68C45.156 25.546 48.76 22.26 53 22.26C57.24 22.26 60.844 25.546 61.374 29.68H44.626ZM41.34 28.62V7.41999C41.34 6.78399 41.764 6.35999 42.4 6.35999H63.6C64.236 6.35999 64.66 6.78399 64.66 7.41999V28.62C64.66 29.256 64.236 29.68 63.6 29.68H63.494C63.07 25.546 60.314 22.154 56.604 20.776C57.664 19.822 58.3 18.444 58.3 16.96C58.3 13.992 55.968 11.66 53 11.66C50.032 11.66 47.7 13.992 47.7 16.96C47.7 18.444 48.336 19.822 49.396 20.776C45.686 22.154 42.93 25.546 42.506 29.68H42.4C41.764 29.68 41.34 29.256 41.34 28.62ZM14.84 51.94C14.84 50.138 16.218 48.76 18.02 48.76C19.822 48.76 21.2 50.138 21.2 51.94C21.2 53.742 19.822 55.12 18.02 55.12C16.218 55.12 14.84 53.742 14.84 51.94ZM9.646 64.66C10.176 60.526 13.78 57.24 18.02 57.24C22.26 57.24 25.864 60.526 26.394 64.66H9.646ZM29.68 63.6C29.68 64.236 29.256 64.66 28.62 64.66H28.514C28.09 60.526 25.334 57.134 21.624 55.756C22.684 54.802 23.32 53.424 23.32 51.94C23.32 48.972 20.988 46.64 18.02 46.64C15.052 46.64 12.72 48.972 12.72 51.94C12.72 53.424 13.356 54.802 14.416 55.756C10.6 57.134 7.844 60.526 7.526 64.66H7.42C6.784 64.66 6.36 64.236 6.36 63.6V42.4C6.36 41.764 6.784 41.34 7.42 41.34H28.62C29.256 41.34 29.68 41.764 29.68 42.4V63.6ZM49.82 86.92C49.82 85.118 51.198 83.74 53 83.74C54.802 83.74 56.18 85.118 56.18 86.92C56.18 88.722 54.802 90.1 53 90.1C51.198 90.1 49.82 88.722 49.82 86.92ZM44.626 99.64C45.156 95.506 48.76 92.22 53 92.22C57.24 92.22 60.844 95.506 61.374 99.64H44.626ZM64.66 77.38V98.58C64.66 99.216 64.236 99.64 63.6 99.64H63.494C63.07 95.506 60.314 92.114 56.604 90.736C57.664 89.782 58.3 88.404 58.3 86.92C58.3 83.952 55.968 81.62 53 81.62C50.032 81.62 47.7 83.952 47.7 86.92C47.7 88.404 48.336 89.782 49.396 90.736C45.686 92.114 42.93 95.506 42.506 99.64H42.4C41.764 99.64 41.34 99.216 41.34 98.58V77.38C41.34 76.744 41.764 76.32 42.4 76.32H63.6C64.236 76.32 64.66 76.744 64.66 77.38ZM59.148 56.71C59.254 55.544 59.36 54.272 59.36 53C59.36 51.728 59.254 50.562 59.148 49.29C63.282 50.138 65.72 51.728 65.72 53C65.72 54.272 63.282 55.862 59.148 56.71ZM53 65.72C51.728 65.72 50.138 63.282 49.29 59.148C50.456 59.254 51.728 59.36 53 59.36C54.272 59.36 55.438 59.254 56.71 59.148C55.862 63.282 54.272 65.72 53 65.72ZM53 57.24C51.516 57.24 50.244 57.134 48.972 57.028C48.866 55.756 48.76 54.484 48.76 53C48.76 51.516 48.866 50.244 48.972 48.972C50.244 48.866 51.516 48.76 53 48.76C54.484 48.76 55.756 48.866 57.028 48.972C57.134 50.244 57.24 51.516 57.24 53C57.24 54.484 57.134 55.756 57.028 57.028C55.756 57.134 54.484 57.24 53 57.24ZM40.28 53C40.28 51.728 42.718 50.138 46.852 49.29C46.746 50.562 46.64 51.728 46.64 53C46.64 54.272 46.746 55.438 46.852 56.71C42.718 55.862 40.28 54.272 40.28 53ZM53 40.28C54.272 40.28 55.862 42.718 56.71 46.852C55.438 46.746 54.272 46.64 53 46.64C51.728 46.64 50.562 46.746 49.29 46.852C50.138 42.718 51.728 40.28 53 40.28ZM65.19 49.29C63.6 48.336 61.374 47.594 58.936 47.17C58.512 44.732 57.77 42.506 56.816 40.916C60.738 42.082 63.918 45.262 65.19 49.29ZM49.29 40.81C48.336 42.4 47.594 44.626 47.17 47.064C44.732 47.488 42.506 48.23 40.916 49.184C42.082 45.262 45.262 42.082 49.29 40.81ZM40.81 56.71C42.4 57.664 44.626 58.406 47.064 58.83C47.488 61.268 48.23 63.494 49.184 65.084C45.262 63.918 42.082 60.738 40.81 56.71ZM56.71 65.19C57.664 63.6 58.406 61.374 58.83 58.936C61.268 58.512 63.494 57.77 65.084 56.816C63.918 60.738 60.738 63.918 56.71 65.19ZM84.8 51.94C84.8 50.138 86.178 48.76 87.98 48.76C89.782 48.76 91.16 50.138 91.16 51.94C91.16 53.742 89.782 55.12 87.98 55.12C86.178 55.12 84.8 53.742 84.8 51.94ZM79.606 64.66C80.136 60.526 83.74 57.24 87.98 57.24C92.22 57.24 95.824 60.526 96.354 64.66H79.606ZM99.64 63.6C99.64 64.236 99.216 64.66 98.58 64.66H98.474C98.05 60.526 95.294 57.134 91.584 55.756C92.644 54.802 93.28 53.424 93.28 51.94C93.28 48.972 90.948 46.64 87.98 46.64C85.012 46.64 82.68 48.972 82.68 51.94C82.68 53.424 83.316 54.802 84.376 55.756C80.666 57.134 77.91 60.526 77.486 64.66H77.38C76.744 64.66 76.32 64.236 76.32 63.6V42.4C76.32 41.764 76.744 41.34 77.38 41.34H98.58C99.216 41.34 99.64 41.764 99.64 42.4V63.6Z" fill="white"/>
<path d="M17.384 35.828C17.384 35.828 17.49 35.8281 17.49 35.9341C17.49 35.9341 17.596 35.934 17.596 36.0401C17.702 36.0401 17.808 36.146 18.02 36.146C18.232 36.146 18.232 36.146 18.444 36.0401C18.444 36.0401 18.55 36.0401 18.55 35.9341C18.55 35.9341 18.656 35.934 18.656 35.828L22.896 32.648C23.32 32.33 23.426 31.588 23.108 31.164C22.79 30.74 22.048 30.6341 21.624 30.9521L19.08 32.8601V24.38C19.08 21.412 21.412 19.08 24.38 19.08H32.86L30.952 21.624C30.634 22.048 30.74 22.79 31.164 23.108C31.376 23.214 31.588 23.32 31.8 23.32C32.118 23.32 32.436 23.2141 32.648 22.896L35.828 18.656C35.828 18.656 35.828 18.55 35.934 18.55C35.934 18.55 35.934 18.444 36.04 18.444C36.146 18.232 36.146 17.914 36.04 17.702C36.04 17.702 36.04 17.596 35.934 17.596C35.934 17.596 35.934 17.49 35.828 17.49L32.648 13.25C32.33 12.826 31.588 12.72 31.164 13.038C30.74 13.356 30.634 14.098 30.952 14.522L32.86 16.96H24.38C20.246 16.96 16.96 20.246 16.96 24.38V32.8601L14.416 30.9521C13.992 30.6341 13.25 30.74 12.932 31.164C12.614 31.588 12.72 32.33 13.144 32.648L17.384 35.828Z" fill="white"/>
<path d="M35.934 87.556C35.934 87.556 35.934 87.45 35.828 87.45C35.828 87.45 35.828 87.344 35.722 87.344L32.542 83.104C32.224 82.68 31.482 82.574 31.058 82.892C30.634 83.21 30.528 83.952 30.846 84.376L32.86 86.92H24.38C21.412 86.92 19.08 84.588 19.08 81.62V73.14L21.624 75.048C21.836 75.154 22.048 75.26 22.26 75.26C22.578 75.26 22.896 75.154 23.108 74.836C23.426 74.412 23.32 73.67 22.896 73.352L18.656 70.172C18.656 70.172 18.55 70.172 18.55 70.066C18.55 70.066 18.444 70.066 18.444 69.96C18.232 69.96 18.126 69.96 18.02 69.96C17.914 69.96 17.808 69.96 17.702 70.066C17.702 70.066 17.596 70.066 17.596 70.172C17.596 70.172 17.49 70.172 17.49 70.278L13.25 73.458C12.826 73.776 12.72 74.518 13.038 74.942C13.356 75.366 14.098 75.472 14.522 75.154L16.96 73.14V81.62C16.96 85.754 20.246 89.04 24.38 89.04H32.86L30.952 91.584C30.634 92.008 30.74 92.75 31.164 93.068C31.376 93.174 31.588 93.28 31.8 93.28C32.118 93.28 32.436 93.174 32.648 92.856L35.828 88.616C35.828 88.616 35.828 88.51 35.934 88.51C35.934 88.51 35.934 88.404 36.04 88.404C36.04 88.086 36.04 87.874 35.934 87.556Z" fill="white"/>
<path d="M70.066 18.444C70.066 18.444 70.066 18.55 70.172 18.55C70.172 18.55 70.172 18.656 70.278 18.656L73.458 22.896C73.67 23.214 73.988 23.32 74.306 23.32C74.518 23.32 74.73 23.214 74.942 23.108C75.366 22.79 75.472 22.048 75.154 21.624L73.14 19.08H81.62C84.588 19.08 86.92 21.412 86.92 24.38V32.86L84.376 30.952C83.952 30.634 83.21 30.74 82.892 31.164C82.574 31.588 82.68 32.33 83.104 32.648L87.344 35.828C87.344 35.828 87.45 35.828 87.45 35.934C87.45 35.934 87.556 35.934 87.556 36.04C87.662 36.04 87.768 36.146 87.98 36.146C88.192 36.146 88.192 36.146 88.404 36.04C88.404 36.04 88.51 36.04 88.51 35.934C88.51 35.934 88.616 35.934 88.616 35.828L92.856 32.648C93.28 32.33 93.386 31.588 93.068 31.164C92.75 30.74 92.008 30.634 91.584 30.952L89.04 32.86V24.38C89.04 20.246 85.754 16.96 81.62 16.96H73.14L75.048 14.416C75.366 13.992 75.26 13.25 74.836 12.932C74.412 12.614 73.67 12.72 73.352 13.144L70.172 17.384C70.172 17.384 70.172 17.49 70.066 17.49C70.066 17.49 70.066 17.596 69.96 17.596C69.96 17.914 69.96 18.126 70.066 18.444Z" fill="white"/>
<path d="M88.616 70.172C88.616 70.172 88.51 70.172 88.51 70.066C88.51 70.066 88.404 70.066 88.404 69.96C88.192 69.96 88.086 69.96 87.98 69.96C87.874 69.96 87.768 69.96 87.662 70.066C87.662 70.066 87.556 70.066 87.556 70.172C87.556 70.172 87.45 70.172 87.45 70.278L83.21 73.458C82.786 73.776 82.68 74.518 82.998 74.942C83.316 75.366 84.058 75.472 84.482 75.154L86.92 73.14V81.62C86.92 84.588 84.588 86.92 81.62 86.92H73.14L75.048 84.376C75.366 83.952 75.26 83.21 74.836 82.892C74.412 82.574 73.67 82.68 73.352 83.104L70.172 87.344C70.172 87.344 70.172 87.45 70.066 87.45C70.066 87.45 70.066 87.556 69.96 87.556C69.854 87.768 69.854 88.086 69.96 88.298C69.96 88.298 69.96 88.404 70.066 88.404C70.066 88.404 70.066 88.51 70.172 88.51L73.352 92.75C73.564 93.068 73.882 93.174 74.2 93.174C74.412 93.174 74.624 93.068 74.836 92.962C75.26 92.644 75.366 91.902 75.048 91.478L73.14 89.04H81.62C85.754 89.04 89.04 85.754 89.04 81.62V73.14L91.584 75.048C91.796 75.154 92.008 75.26 92.22 75.26C92.538 75.26 92.856 75.154 93.068 74.836C93.386 74.412 93.28 73.67 92.856 73.352L88.616 70.172Z" fill="white"/>
</g>
</svg>
