<svg width="70" height="97" viewBox="0 0 70 97" fill="none" xmlns="http://www.w3.org/2000/svg">
<path d="M52.2467 75.2636H52.4967V75.0136V66.2012C52.4967 65.2464 53.2711 64.4723 54.2256 64.4723C55.1806 64.4723 55.9544 65.2463 55.9544 66.2012V94.985C55.9544 95.9397 55.1804 96.7139 54.2256 96.7139H1.97885C1.02402 96.7139 0.25 95.9397 0.25 94.985V1.97885C0.25 1.024 1.024 0.25 1.97885 0.25H54.2256C55.1804 0.25 55.9544 1.024 55.9544 1.97885V23.4097C55.9544 24.3647 55.1804 25.1385 54.2256 25.1385C53.2711 25.1385 52.4967 24.3647 52.4967 23.4097V14.3042V14.0542H52.2467H3.95771H3.70771V14.3042V75.0136V75.2636H3.95771H52.2467ZM52.4967 3.95771V3.70771H52.2467H3.95771H3.70771V3.95771V10.3464V10.5964H3.95771H52.2467H52.4967V10.3464V3.95771ZM3.70771 93.0062V93.2562H3.95771H52.2467H52.4967V93.0062V78.9713V78.7213H52.2467H3.95771H3.70771V78.9713V93.0062Z" fill="white" stroke="#152D4C" stroke-width="0.5"/>
<path d="M28.1176 88.8432C29.7695 88.8432 31.1086 87.5025 31.1086 85.8488C31.1086 84.195 29.7695 82.8544 28.1176 82.8544C26.4657 82.8544 25.1265 84.195 25.1265 85.8488C25.1265 87.5025 26.4657 88.8432 28.1176 88.8432Z" fill="white"/>
<path d="M37.9144 49.2989C37.5369 48.2723 36.399 47.7465 35.374 48.1252L34.0998 48.5952C33.9146 48.2998 33.7133 48.0146 33.4976 47.7411L34.3666 46.6965C35.0661 45.8557 34.9525 44.6064 34.1127 43.9063C33.2732 43.2066 32.0248 43.3212 31.3257 44.162L30.4591 45.2035C30.1526 45.0408 29.8366 44.8928 29.5095 44.7628L29.7394 43.4294C29.925 42.3509 29.2025 41.3265 28.1258 41.1409C27.0488 40.9552 26.0249 41.6787 25.8389 42.7572L25.6093 44.0907C25.2577 44.1034 24.9098 44.137 24.5665 44.1879L24.0989 42.9165C23.7213 41.8899 22.5835 41.3643 21.558 41.7426C20.5322 42.1212 20.007 43.26 20.3846 44.2866L20.8538 45.5618C20.5585 45.7474 20.2736 45.9487 20.0003 46.1652L18.9572 45.2957C18.1182 44.5955 16.8693 44.7101 16.1702 45.5509C15.4707 46.392 15.5843 47.6412 16.4241 48.3411L17.4642 49.2081C17.3015 49.515 17.1535 49.8316 17.0239 50.1593L15.6917 49.9295C14.6146 49.7439 13.5908 50.4676 13.4051 51.5459V51.5461C13.2193 52.6244 13.9416 53.6488 15.0187 53.8344L16.3505 54.064C16.3631 54.4156 16.3968 54.7639 16.447 55.1074L15.177 55.576C14.1512 55.9546 13.626 57.0934 14.0036 58.12C14.3811 59.1467 15.519 59.6724 16.5444 59.2937L17.8184 58.8237C18.0036 59.1189 18.2045 59.4043 18.4206 59.6776L17.5516 60.7222C16.8525 61.5632 16.9661 62.8125 17.8059 63.5124C18.6453 64.2123 19.8934 64.0978 20.5929 63.2569L21.4591 62.2153C21.7656 62.3779 22.082 62.526 22.4091 62.656L22.1792 63.9897C21.9936 65.068 22.7157 66.0926 23.7927 66.2781C24.8698 66.4639 25.8937 65.74 26.0793 64.6617L26.3093 63.3282C26.6609 63.3153 27.0084 63.2817 27.3517 63.231L27.8193 64.5024C28.1969 65.5289 29.3347 66.0548 30.3602 65.6761C31.386 65.2977 31.9112 64.1587 31.5336 63.1323L31.0644 61.8569C31.3597 61.6715 31.6446 61.47 31.9179 61.2537L32.9614 62.1231C33.8004 62.8232 35.0489 62.7086 35.7484 61.8676C36.4475 61.0266 36.3339 59.7773 35.4941 59.0774L34.454 58.2107C34.6167 57.9035 34.7647 57.5871 34.8947 57.2594L36.2265 57.4892C37.3036 57.6748 38.3274 56.9511 38.5134 55.8728C38.6993 54.7944 37.9766 53.7699 36.8999 53.5843L35.5677 53.3549C35.5553 53.0029 35.5218 52.6548 35.4712 52.3111L36.7416 51.8427C37.7666 51.4643 38.292 50.3253 37.9144 49.2989ZM31.5336 54.6705C31.0033 57.7478 28.071 59.8205 24.9973 59.2907C21.9235 58.761 19.8542 55.8263 20.3844 52.749C20.9147 49.6715 23.847 47.5989 26.9211 48.1284C29.9945 48.6581 32.0642 51.5928 31.5336 54.6701V54.6705Z" fill="white"/>
<path d="M68.0211 42.6613H65.8246C65.7005 41.9319 65.512 41.2249 65.2603 40.5475L67.1629 39.4473C68.109 38.9001 68.4329 37.6899 67.8856 36.7438C67.339 35.7979 66.129 35.4739 65.1821 36.0211L63.2778 37.1219C62.812 36.5611 62.2957 36.0444 61.7353 35.5782L62.8371 33.667C63.3833 32.7202 63.0582 31.5101 62.1113 30.9643C61.1644 30.418 59.9547 30.7433 59.4086 31.69L58.3109 33.5934C57.6357 33.3423 56.9307 33.1537 56.2042 33.03V30.828C56.2042 29.7351 55.3179 28.8491 54.2254 28.8491C53.1324 28.8491 52.2461 29.7351 52.2461 30.828V33.03C51.5195 33.1537 50.8146 33.3423 50.1394 33.5934L49.0418 31.69C48.4956 30.7433 47.2859 30.418 46.339 30.9643C45.3922 31.5101 45.067 32.7202 45.6132 33.667L46.715 35.5782C46.1546 36.0442 45.6383 36.5611 45.1725 37.1219L43.2682 36.0211C42.3214 35.4739 41.1113 35.7979 40.5647 36.7438C40.0174 37.6899 40.3413 38.9001 41.2874 39.4473L43.1901 40.5475C42.9386 41.2249 42.7498 41.9319 42.6257 42.6613H40.4292C39.3363 42.6613 38.4503 43.5473 38.4503 44.6402C38.4503 45.7331 39.3363 46.619 40.4292 46.619H42.6257C42.7498 47.3484 42.9384 48.0555 43.1901 48.7328L41.2874 49.8331C40.3413 50.3802 40.0174 51.5905 40.5647 52.5366C41.1113 53.4825 42.3214 53.8064 43.2682 53.2593L45.1725 52.1582C45.6383 52.7191 46.1546 53.2357 46.715 53.702L45.6132 55.6131C45.067 56.56 45.3922 57.7701 46.339 58.3158C47.2859 58.8622 48.4956 58.5369 49.0418 57.5902L50.1394 55.6867C50.8146 55.9377 51.5197 56.1264 52.2461 56.2501V58.4522C52.2461 59.5449 53.1324 60.431 54.2254 60.431C55.3179 60.431 56.2042 59.5449 56.2042 58.4522V56.2501C56.9309 56.1264 57.6357 55.9379 58.3109 55.6867L59.4086 57.5902C59.9547 58.5369 61.1644 58.8622 62.1113 58.3158C63.0582 57.7701 63.3833 56.56 62.8371 55.6131L61.7353 53.702C62.2957 53.2359 62.812 52.7191 63.2778 52.1582L65.1821 53.2593C66.129 53.8064 67.339 53.4825 67.8856 52.5366C68.4329 51.5905 68.109 50.3802 67.1629 49.8331L65.2603 48.7328C65.5118 48.0555 65.7005 47.3484 65.8246 46.619H68.0211C69.1141 46.619 70 45.7331 70 44.6402C70 43.5473 69.1141 42.6613 68.0211 42.6613ZM62.0363 44.6402C62.0363 48.9535 58.5323 52.4624 54.2256 52.4624C49.9184 52.4624 46.4144 48.9535 46.4144 44.6402C46.4144 40.3269 49.9184 36.818 54.2256 36.818C58.5323 36.818 62.0363 40.3269 62.0363 44.6402Z" fill="white"/>
</svg>
