<svg width="106" height="106" viewBox="0 0 106 106" fill="none" xmlns="http://www.w3.org/2000/svg">
<g opacity="0.7" clip-path="url(#clip0_2_478)">
<path d="M98.1883 9H7.81172C5.47551 9.00263 3.23574 9.93185 1.5838 11.5838C-0.0681494 13.2357 -0.997369 15.4755 -1 17.8117V87.4017C-0.997129 89.9775 0.0273848 92.447 1.84877 94.2684C3.67015 96.0898 6.13966 97.1143 8.71548 97.1172H97.2845C99.8603 97.1143 102.33 96.0898 104.151 94.2684C105.973 92.447 106.997 89.9775 107 87.4017V17.8117C106.997 15.4755 106.068 13.2357 104.416 11.5838C102.764 9.93185 100.524 9.00263 98.1883 9ZM103.837 17.8117V28.3704H42.9574L50.6231 12.1632H98.1883C99.6859 12.1649 101.122 12.7605 102.181 13.8194C103.239 14.8784 103.835 16.3141 103.837 17.8117ZM7.81172 12.1632H47.1255L39.458 28.3704H2.16318V17.8117C2.16485 16.3141 2.7605 14.8784 3.81945 13.8194C4.87839 12.7605 6.31414 12.1649 7.81172 12.1632ZM97.2845 93.954H8.71548C6.97829 93.9521 5.3128 93.2611 4.08442 92.0327C2.85604 90.8044 2.16509 89.1389 2.16318 87.4017V31.5336H103.837V87.4017C103.835 89.1389 103.144 90.8044 101.916 92.0327C100.687 93.2611 99.0217 93.9521 97.2845 93.954Z" fill="white"/>
<path d="M14.6532 25.464C15.681 25.464 16.6857 25.1592 17.5403 24.5882C18.3949 24.0172 19.061 23.2056 19.4543 22.256C19.8476 21.3064 19.9505 20.2616 19.75 19.2535C19.5495 18.2455 19.0546 17.3195 18.3278 16.5927C17.6011 15.866 16.6751 15.371 15.667 15.1705C14.659 14.97 13.6141 15.0729 12.6646 15.4663C11.715 15.8596 10.9034 16.5256 10.3324 17.3802C9.76135 18.2348 9.45657 19.2395 9.45657 20.2673C9.45801 21.6451 10.006 22.9661 10.9802 23.9403C11.9545 24.9146 13.2754 25.4626 14.6532 25.464ZM14.6532 18.2339C15.0554 18.2339 15.4486 18.3531 15.783 18.5766C16.1174 18.8 16.378 19.1176 16.5319 19.4892C16.6858 19.8607 16.7261 20.2696 16.6476 20.664C16.5692 21.0585 16.3755 21.4208 16.0911 21.7052C15.8067 21.9896 15.4444 22.1833 15.0499 22.2617C14.6555 22.3402 14.2466 22.2999 13.875 22.146C13.5035 21.9921 13.1859 21.7315 12.9625 21.3971C12.739 21.0627 12.6198 20.6695 12.6198 20.2673C12.6205 19.7282 12.8349 19.2114 13.2161 18.8302C13.5973 18.449 14.1141 18.2346 14.6532 18.2339ZM29.1641 25.464C30.1919 25.464 31.1966 25.1592 32.0512 24.5882C32.9058 24.0172 33.5718 23.2056 33.9652 22.256C34.3585 21.3064 34.4614 20.2616 34.2609 19.2535C34.0604 18.2455 33.5654 17.3195 32.8387 16.5927C32.1119 15.866 31.186 15.371 30.1779 15.1705C29.1699 14.97 28.125 15.0729 27.1754 15.4663C26.2259 15.8596 25.4142 16.5256 24.8432 17.3802C24.2722 18.2348 23.9674 19.2395 23.9674 20.2673C23.9689 21.6451 24.5168 22.9661 25.4911 23.9403C26.4653 24.9146 27.7863 25.4626 29.1641 25.464ZM29.1641 18.2339C29.5663 18.2339 29.9594 18.3531 30.2938 18.5766C30.6282 18.8 30.8889 19.1176 31.0428 19.4892C31.1967 19.8607 31.2369 20.2696 31.1585 20.664C31.08 21.0585 30.8864 21.4208 30.602 21.7052C30.3176 21.9896 29.9553 22.1833 29.5608 22.2617C29.1663 22.3402 28.7575 22.2999 28.3859 22.146C28.0143 21.9921 27.6968 21.7315 27.4733 21.3971C27.2499 21.0627 27.1306 20.6695 27.1306 20.2673C27.1313 19.7282 27.3458 19.2114 27.727 18.8302C28.1082 18.449 28.625 18.2346 29.1641 18.2339ZM56.1831 21.8489H96.6221C97.0415 21.8489 97.4438 21.6823 97.7404 21.3857C98.037 21.0891 98.2037 20.6868 98.2037 20.2673C98.2037 19.8479 98.037 19.4456 97.7404 19.149C97.4438 18.8524 97.0415 18.6857 96.6221 18.6857H56.1831C55.7636 18.6857 55.3613 18.8524 55.0647 19.149C54.7681 19.4456 54.6015 19.8479 54.6015 20.2673C54.6015 20.6868 54.7681 21.0891 55.0647 21.3857C55.3613 21.6823 55.7636 21.8489 56.1831 21.8489ZM94.6338 41.2799H53C52.5805 41.2799 52.1783 41.4465 51.8816 41.7431C51.585 42.0397 51.4184 42.442 51.4184 42.8615V52.8029C51.4184 53.2224 51.585 53.6246 51.8816 53.9213C52.1783 54.2179 52.5805 54.3845 53 54.3845H94.6338C94.8415 54.3846 95.0472 54.3438 95.2392 54.2643C95.4311 54.1849 95.6055 54.0684 95.7524 53.9215C95.8993 53.7746 96.0158 53.6002 96.0952 53.4083C96.1747 53.2163 96.2155 53.0106 96.2154 52.8029V42.8615C96.2155 42.6537 96.1747 42.448 96.0952 42.2561C96.0158 42.0641 95.8993 41.8897 95.7524 41.7429C95.6055 41.596 95.4311 41.4795 95.2392 41.4C95.0472 41.3206 94.8415 41.2798 94.6338 41.2799ZM93.0522 51.2213H54.5816V44.4431H93.0522V51.2213ZM94.6338 61.1627H53C52.5805 61.1627 52.1783 61.3294 51.8816 61.626C51.585 61.9226 51.4184 62.3249 51.4184 62.7443C51.4184 63.1638 51.585 63.5661 51.8816 63.8627C52.1783 64.1593 52.5805 64.3259 53 64.3259H94.6338C95.0532 64.3259 95.4555 64.1593 95.7521 63.8627C96.0487 63.5661 96.2154 63.1638 96.2154 62.7443C96.2154 62.3249 96.0487 61.9226 95.7521 61.626C95.4555 61.3294 95.0532 61.1627 94.6338 61.1627ZM94.6338 71.1042H53C52.5805 71.1042 52.1783 71.2708 51.8816 71.5674C51.585 71.864 51.4184 72.2663 51.4184 72.6857C51.4184 73.1052 51.585 73.5075 51.8816 73.8041C52.1783 74.1007 52.5805 74.2673 53 74.2673H94.6338C95.0532 74.2673 95.4555 74.1007 95.7521 73.8041C96.0487 73.5075 96.2154 73.1052 96.2154 72.6857C96.2154 72.2663 96.0487 71.864 95.7521 71.5674C95.4555 71.2708 95.0532 71.1042 94.6338 71.1042ZM94.6338 81.0456H53C52.5805 81.0456 52.1783 81.2122 51.8816 81.5088C51.585 81.8054 51.4184 82.2077 51.4184 82.6272C51.4184 83.0466 51.585 83.4489 51.8816 83.7455C52.1783 84.0421 52.5805 84.2088 53 84.2088H94.6338C95.0532 84.2088 95.4555 84.0421 95.7521 83.7455C96.0487 83.4489 96.2154 83.0466 96.2154 82.6272C96.2154 82.2077 96.0487 81.8054 95.7521 81.5088C95.4555 81.2122 95.0532 81.0456 94.6338 81.0456ZM26.7004 63.189C28.2159 63.1892 29.6974 62.7399 30.9575 61.8981C32.2177 61.0563 33.1999 59.8597 33.7799 58.4596C34.36 57.0596 34.5119 55.519 34.2163 54.0326C33.9208 52.5462 33.1911 51.1809 32.1196 50.1092C31.0481 49.0376 29.6828 48.3077 28.1965 48.012C26.7101 47.7163 25.1695 47.868 23.7694 48.4479C22.3692 49.0278 21.1725 50.0099 20.3306 51.2699C19.4886 52.53 19.0392 54.0114 19.0392 55.5269C19.0414 57.5582 19.8492 59.5057 21.2854 60.9421C22.7217 62.3785 24.6691 63.1866 26.7004 63.189ZM26.7004 51.0288C27.5903 51.0286 28.4603 51.2924 29.2002 51.7866C29.9402 52.2809 30.517 52.9836 30.8576 53.8057C31.1983 54.6278 31.2874 55.5324 31.1139 56.4052C30.9403 57.278 30.5118 58.0797 29.8826 58.709C29.2533 59.3382 28.4516 59.7667 27.5788 59.9403C26.706 60.1139 25.8013 60.0247 24.9792 59.6841C24.1571 59.3434 23.4545 58.7667 22.9602 58.0267C22.4659 57.2867 22.2022 56.4167 22.2024 55.5269C22.2036 54.3343 22.6779 53.1909 23.5211 52.3476C24.3644 51.5043 25.5078 51.03 26.7004 51.0288Z" fill="white"/>
<path d="M43.6144 74.1073V42.8614C43.6145 42.6536 43.5737 42.4479 43.4942 42.256C43.4148 42.064 43.2983 41.8896 43.1514 41.7428C43.0045 41.5959 42.8301 41.4794 42.6382 41.3999C42.4462 41.3205 42.2405 41.2797 42.0328 41.2798H11.3662C11.1585 41.2797 10.9527 41.3205 10.7608 41.3999C10.5689 41.4794 10.3945 41.5959 10.2476 41.7428C10.1007 41.8896 9.9842 42.064 9.90476 42.256C9.82532 42.4479 9.78449 42.6536 9.78461 42.8614V82.6271C9.78449 82.8348 9.82532 83.0405 9.90476 83.2325C9.9842 83.4244 10.1007 83.5988 10.2476 83.7457C10.3945 83.8926 10.5689 84.0091 10.7608 84.0885C10.9527 84.168 11.1585 84.2088 11.3662 84.2087H42.0328C42.2405 84.2088 42.4462 84.168 42.6382 84.0885C42.8301 84.0091 43.0045 83.8926 43.1514 83.7457C43.2983 83.5988 43.4148 83.4244 43.4942 83.2325C43.5737 83.0405 43.6145 82.8348 43.6144 82.6271V74.1606C43.6153 74.1428 43.6153 74.125 43.6144 74.1073ZM40.4512 44.443V71.1221C36.2889 68.6669 31.5324 67.4018 26.7004 67.4646C21.8677 67.4017 17.1105 68.6672 12.9478 71.123V44.443H40.4512ZM12.9478 81.0455V74.9803C16.3821 72.2166 21.3374 70.6278 26.7004 70.6278C32.0633 70.6278 37.016 72.2184 40.4512 74.9785V81.0455H12.9478Z" fill="white"/>
</g>
<defs>
<clipPath id="clip0_2_478">
<rect width="106" height="106" fill="white"/>
</clipPath>
</defs>
</svg>
